<svg xmlns="http://www.w3.org/2000/svg" xmlns:xlink="http://www.w3.org/1999/xlink" viewBox="0 0 748.24 202.57"><defs><style>.cls-1{fill:url(#Degradado_sin_nombre_17);}.cls-2{fill:url(#Degradado_sin_nombre_17-2);}.cls-3{fill:url(#Degradado_sin_nombre_11);}.cls-4{fill:#3d81b2;}</style><linearGradient id="Degradado_sin_nombre_17" x1="17.43" y1="87.93" x2="113.82" y2="87.93" gradientUnits="userSpaceOnUse"><stop offset="0" stop-color="#70bee1"/><stop offset="1" stop-color="#69bfe1"/></linearGradient><linearGradient id="Degradado_sin_nombre_17-2" x1="0" y1="131.3" x2="216.47" y2="131.3" xlink:href="#Degradado_sin_nombre_17"/><linearGradient id="Degradado_sin_nombre_11" x1="110.35" y1="75.89" x2="167.14" y2="19.09" gradientUnits="userSpaceOnUse"><stop offset="0.21" stop-color="#88cbc1"/><stop offset="1" stop-color="#87cbc3"/></linearGradient></defs><g id="Capa_2" data-name="Capa 2"><g id="Capa_1-2" data-name="Capa 1"><path class="cls-1" d="M101.4,175.86c-22.6-21.39-50.75-28.76-80.59-31.75.52-10.56,3.12-20.15,9.89-28.27a2.11,2.11,0,0,1,.39-.45c6.3-4.23,7.28-10.94,8.1-17.66.6-5-.55-9.44-4.23-13.1-1.92-1.92-3.81-3.88-5.55-6A50.21,50.21,0,0,1,17.84,51.75,47.46,47.46,0,0,1,21,27.25C26.26,14.62,36,6.81,48.8,2.83,64.6-2.09,80-.7,94.28,7.84c7.59,4.52,13.21,10.9,14.72,20A44.36,44.36,0,0,1,109.08,38c-.08,1.19-1.26,2.3-1.93,3.45a3.56,3.56,0,0,0-.61,1.17c-.33,3.55-.64,7.1-.89,10.66a15.72,15.72,0,0,0,3,10.09c1.19,1.75,2.5,3.42,3.76,5.12,2.28,3.06,1.87,4.55-1.61,6-1.22.5-2.43,1-3.63,1.59a1.57,1.57,0,0,0-.87,2.28c.25.6.34,1.28.62,1.87a2.75,2.75,0,0,1-1,3.81,2.49,2.49,0,0,0-.88,3.72c1,1.75.73,3.27-1.09,4.4s-1.69,3.2-1.67,4.86c0,5.59-4,8.23-8.7,8.81-3.43.42-7,0-10.46-.11a5.36,5.36,0,0,1-.78-.15c-4.48-.56-5.85.63-6.06,5.2a52.81,52.81,0,0,1-.36,5.35c-.34,2.36.63,3.94,2.31,5.5,11.1,10.33,18.57,22.84,21.67,37.74,1.1,5.34,1.53,10.82,2.27,16.23Z"/><path class="cls-2" d="M168.71,163.5c2.94-.5,5.57-1.07,8.24-1.38,7.15-.84,14.31-1.67,21.48-2.26,2-.16,2.55-.7,2.54-2.66q-.24-43.56-.35-87.13c0-1.37,0-2.75,0-4.3-9.23,1.32-17.77,4.18-26.28,7-2.08-2.76-1.71-4.19,1.32-5.34a138.37,138.37,0,0,1,26.26-7.34c2.33-.39,3.56.49,3.59,2.91,0,2.58-.18,5.16-.25,7.75,0,1.18,0,2.36,0,3.88,2.14-.18,4.14-.35,6.15-.5a11.93,11.93,0,0,1,2-.08c2.29.19,3,.93,3,3.26,0,8.15,0,16.31,0,24.46q0,35.11,0,70.22c0,3.7-.7,4.45-4.47,4.66-7.39.42-14.82.59-22.18,1.36-6.61.68-13.2,1.84-19.73,3.13a188.1,188.1,0,0,0-37.75,11.59,51.83,51.83,0,0,0-13.14,7.71,9.42,9.42,0,0,1-6.46,2.1c-3.9-.08-7.8-.07-11.68-.37a7.07,7.07,0,0,1-3.73-1.64c-4.86-4-10.5-6.64-16.24-9-13.81-5.79-28.25-9.43-43-11.92a207.94,207.94,0,0,0-32.39-2.87,17.16,17.16,0,0,1-2.38-.09C.91,176.3,0,175.24,0,172.79Q0,125.15,0,77.5c0-2.78,1-4,3.71-3.59,5.47.83,10.91,1.91,16.28,3.21,1.38.33,2.67,1.66,3.66,2.82a69.07,69.07,0,0,1,4,5.75L15.84,81.6c-.06,1.27-.12,2-.13,2.7q-.15,36.49-.29,73c0,2.69.05,2.74,2.76,2.84C41,161,63,165.73,83.7,175.4c6.87,3.2,13.27,7.4,19.88,11.14.43.25.88.48,1.7.93V116.62c3.84,1.56,5.56,3.95,5.57,7.58q0,30.15,0,60.28v2.78c1.91-1.23,3.49-2.23,5.06-3.26a131.81,131.81,0,0,1,32.25-15c1.38-.45,2-1.07,1.8-2.52a10.26,10.26,0,0,1,0-3c.83-4.51-1.31-7.6-4.45-10.51-4.62-4.28-9-8.83-13.47-13.23a8.6,8.6,0,0,1-2.84-6.89c.18-4,0-8,.06-11.93a2.7,2.7,0,0,0-1.59-2.83c-4.51-2.4-5.07-6.2-4.11-9.89,1-3.87,5-6.19,9.12-5.7,2.78.33,5.71,3,6.5,6,.87,3.29-.15,6.84-3.05,8.52-2,1.15-2.28,2.52-2.23,4.49.11,3.84,0,7.69.07,11.54a3.65,3.65,0,0,0,.79,2.31c4.66,4.72,9.39,9.36,14.11,14a8.72,8.72,0,0,0,1,.63c0-.92.13-1.59.13-2.26q0-18.81,0-37.6a2.23,2.23,0,0,0-1.45-2.43A8,8,0,0,1,144.31,98c1.41-4.14,5.32-6.63,9.21-5.87a8.52,8.52,0,0,1,6.66,8.7A7.78,7.78,0,0,1,156,107.4a2.37,2.37,0,0,0-1.39,2.47q0,26.26,0,52.52V167c3-.79,5.87-1.46,8.66-2.35.41-.13.7-1.29.7-2,0-12.73,0-25.47,0-38.2,0-.93-.06-1.86,0-2.78a4.54,4.54,0,0,0-1.27-3.74,5,5,0,0,1,.6-7.12,5.27,5.27,0,0,1,7.16.48,5.08,5.08,0,0,1-.59,7c-.45.43-1.07,1-1.08,1.53-.08,5.68-.05,11.35-.05,17.67,1.5-1.46,2.52-2.63,3.72-3.57,4-3.13,5.6-7,5.21-12.2-.48-6.32-.1-12.72,0-19.08a3.16,3.16,0,0,0-1.74-3.16c-3.44-2-4.72-5.34-3.7-8.77s4.1-6.1,7.39-6.14a8.18,8.18,0,0,1,8.24,5.55,7.82,7.82,0,0,1-3.91,9.6,2.39,2.39,0,0,0-1.42,2.47c.05,8-.07,15.92.09,23.87a9.73,9.73,0,0,1-3.1,7.42c-3.13,3.16-6.28,6.29-9.35,9.49a4.15,4.15,0,0,0-1.34,2.32C168.66,151.22,168.71,157.17,168.71,163.5Zm-34.06-53a3,3,0,0,0-3.29-3,3.13,3.13,0,0,0-3.36,3.13,3.35,3.35,0,0,0,3.23,3.34A3.75,3.75,0,0,0,134.65,110.48Zm17.55-13.3a3.3,3.3,0,0,0-3.5,3.23,3.06,3.06,0,0,0,3.22,3.21,3.22,3.22,0,0,0,3.29-3.21A3.1,3.1,0,0,0,152.2,97.18Zm27.94-1.44a3.19,3.19,0,0,0,3.25-3.24,3.71,3.71,0,0,0-3.24-3.21,3.24,3.24,0,0,0-3.24,3.5A2.93,2.93,0,0,0,180.14,95.74Z"/><path class="cls-3" d="M114.24,79.78a7.78,7.78,0,0,1,1.19-1.34c4.64-3,4.48-9.92,1.44-13.78-2.48-3.15-4.53-6.45-5.2-10.53a20.05,20.05,0,0,1,1.12-10.7,30.35,30.35,0,0,0-.88-24.62c-1.08-2.36-.86-2.71,1.76-2.71H161c4.19,0,4.93.72,5,5,.06,5.44,0,10.88.17,16.31,0,1.06.52,2.72,1.22,3,1,.39,2.44-.22,3.68-.44a1.53,1.53,0,0,0,.64-.46c5.1-4.86,12.67-1.46,14.49,4.56,1.92,6.33-1.36,12.86-7.33,14.25-2.5.58-4.66-.24-6.73-1.57-1.41-.9-2.73-2.49-4.62-1.53s-1.59,3.15-1.59,5c0,5.24,0,10.48,0,15.72,0,3.72-1,4.57-4.61,4.57-4.78,0-9.55,0-14.33,0-1.75,0-3.33-.31-4.18-2s-.11-3.29,1.07-4.7c3.12-3.73,3.5-8.46,1.05-12.14s-8.27-5-12.67-2.9a8.93,8.93,0,0,0-4.7,11,17.68,17.68,0,0,0,2.77,4.71c1.73,2.27.72,5.79-2,5.95-4.1.25-8.22.07-12.33,0A6.8,6.8,0,0,1,114.24,79.78Z"/><path class="cls-4" d="M270.77,147a30.76,30.76,0,0,1-13.33-10.12,27.64,27.64,0,0,1-5.26-16.13h24.88q.54,5.34,3.69,8.14a11.86,11.86,0,0,0,8.2,2.8c3.46,0,6.2-.8,8.2-2.39a8,8,0,0,0,3-6.63,7.87,7.87,0,0,0-2.39-5.88,19.55,19.55,0,0,0-5.88-3.83,94,94,0,0,0-9.91-3.41,107.19,107.19,0,0,1-15.17-5.75,28,28,0,0,1-10.12-8.47q-4.23-5.61-4.24-14.63,0-13.39,9.71-21t25.29-7.59q15.85,0,25.56,7.59T323.4,80.85H298.11a9.85,9.85,0,0,0-3.42-7.31,12,12,0,0,0-8.06-2.67,10,10,0,0,0-6.84,2.26,8.13,8.13,0,0,0-2.59,6.49,8,8,0,0,0,4.37,7.24q4.38,2.61,13.67,5.61a127.28,127.28,0,0,1,15.1,6,28.88,28.88,0,0,1,10.05,8.34q4.23,5.48,4.24,14.08a27.61,27.61,0,0,1-4.17,14.9,29.13,29.13,0,0,1-12.1,10.66,41.3,41.3,0,0,1-18.72,4A49.35,49.35,0,0,1,270.77,147Z"/><path class="cls-4" d="M362.35,53.51v96H339v-96Z"/><path class="cls-4" d="M465.15,149.47H441.77L402.68,90.28v59.19H379.3v-96h23.38L441.77,113V53.51h23.38Z"/><path class="cls-4" d="M553.59,108.53a23.49,23.49,0,0,1,5.06,14.83q0,12-8.41,19.07t-23.44,7H482.1v-96h43.19q14.63,0,22.9,6.7t8.27,18.18q0,8.48-4.44,14.08a23,23,0,0,1-11.83,7.79A22.34,22.34,0,0,1,553.59,108.53Zm-48.12-16.2h15.31q5.75,0,8.82-2.53c2-1.68,3.07-4.17,3.07-7.45s-1-5.78-3.07-7.52-5-2.59-8.82-2.59H505.47Zm26.32,35.61q3.21-2.67,3.21-7.72a9.9,9.9,0,0,0-3.35-7.93q-3.36-2.88-9.23-2.87H505.47v21.19H522.7Q528.57,130.61,531.79,127.94Z"/><path class="cls-4" d="M631.91,132.52H596.1l-5.74,16.95H565.89l34.72-96h27.07l34.72,96H637.65Zm-6-18L614,79.35l-11.76,35.13Z"/><path class="cls-4" d="M721.86,149.47l-20-36.22h-5.6v36.22H672.92v-96h39.23q11.34,0,19.34,4a27.28,27.28,0,0,1,12,10.86,30.28,30.28,0,0,1,4,15.38,28.56,28.56,0,0,1-5.4,17.09q-5.4,7.51-15.93,10.66l22.15,38ZM696.3,96.71h14.48q6.44,0,9.64-3.15c2.14-2.09,3.21-5.06,3.21-8.88q0-5.48-3.21-8.61t-9.64-3.15H696.3Z"/></g></g></svg>