<svg xmlns="http://www.w3.org/2000/svg" xmlns:xlink="http://www.w3.org/1999/xlink" viewBox="0 0 291.23 322"><defs><style>.cls-1{fill:url(#Degradado_sin_nombre_17);}.cls-2{fill:url(#Degradado_sin_nombre_17-2);}.cls-3{fill:url(#Degradado_sin_nombre_11);}.cls-4{font-size:78.5px;fill:#3d81b2;font-family:Poppins-Bold, Poppins;font-weight:700;}</style><linearGradient id="Degradado_sin_nombre_17" x1="54.81" y1="87.93" x2="151.2" y2="87.93" gradientUnits="userSpaceOnUse"><stop offset="0" stop-color="#70bee1"/><stop offset="1" stop-color="#69bfe1"/></linearGradient><linearGradient id="Degradado_sin_nombre_17-2" x1="37.38" y1="131.3" x2="253.85" y2="131.3" xlink:href="#Degradado_sin_nombre_17"/><linearGradient id="Degradado_sin_nombre_11" x1="147.73" y1="75.89" x2="204.52" y2="19.09" gradientUnits="userSpaceOnUse"><stop offset="0.21" stop-color="#88cbc1"/><stop offset="1" stop-color="#87cbc3"/></linearGradient></defs><g id="Capa_2" data-name="Capa 2"><g id="Capa_1-2" data-name="Capa 1"><path class="cls-1" d="M138.78,175.86C116.17,154.47,88,147.1,58.19,144.11c.51-10.56,3.12-20.15,9.88-28.27a2.47,2.47,0,0,1,.4-.45c6.29-4.23,7.28-10.94,8.1-17.66.6-5-.55-9.44-4.23-13.1-1.92-1.92-3.82-3.88-5.56-6A50.29,50.29,0,0,1,55.21,51.75a47.67,47.67,0,0,1,3.11-24.5C63.64,14.62,73.39,6.81,86.18,2.83c15.8-4.92,31.15-3.53,45.47,5,7.59,4.52,13.21,10.9,14.72,20A43.81,43.81,0,0,1,146.46,38c-.08,1.19-1.26,2.3-1.93,3.45a3.22,3.22,0,0,0-.61,1.17c-.34,3.55-.65,7.1-.89,10.66a15.66,15.66,0,0,0,3,10.09c1.19,1.75,2.5,3.42,3.76,5.12,2.28,3.06,1.87,4.55-1.61,6-1.23.5-2.43,1-3.63,1.59a1.56,1.56,0,0,0-.88,2.28c.26.6.35,1.28.63,1.87a2.76,2.76,0,0,1-1,3.81,2.48,2.48,0,0,0-.88,3.72c1,1.75.73,3.27-1.1,4.4s-1.68,3.2-1.67,4.86c0,5.59-4,8.23-8.69,8.81-3.43.42-7,0-10.46-.11a5.36,5.36,0,0,1-.78-.15c-4.49-.56-5.86.63-6.06,5.2a52.81,52.81,0,0,1-.36,5.35c-.35,2.36.63,3.94,2.31,5.5,11.1,10.33,18.57,22.84,21.66,37.74,1.11,5.34,1.54,10.82,2.28,16.23Z"/><path class="cls-2" d="M206.09,163.5c2.93-.5,5.57-1.07,8.23-1.38,7.16-.84,14.31-1.67,21.49-2.26,2-.16,2.54-.7,2.53-2.66q-.24-43.56-.35-87.13v-4.3c-9.24,1.32-17.78,4.18-26.28,7C209.63,70,210,68.61,213,67.46a138.07,138.07,0,0,1,26.25-7.34c2.33-.39,3.57.49,3.6,2.91,0,2.58-.18,5.16-.26,7.75,0,1.18,0,2.36,0,3.88,2.14-.18,4.14-.35,6.14-.5a12,12,0,0,1,2-.08c2.3.19,3,.93,3,3.26,0,8.15,0,16.31,0,24.46q0,35.11,0,70.22c0,3.7-.71,4.45-4.47,4.66-7.4.42-14.82.59-22.18,1.36-6.62.68-13.2,1.84-19.74,3.13a188.21,188.21,0,0,0-37.74,11.59,51.49,51.49,0,0,0-13.14,7.71,9.44,9.44,0,0,1-6.46,2.1c-3.9-.08-7.81-.07-11.69-.37a7,7,0,0,1-3.72-1.64c-4.86-4-10.5-6.64-16.24-9-13.82-5.79-28.25-9.43-43-11.92a207.94,207.94,0,0,0-32.39-2.87,17.16,17.16,0,0,1-2.38-.09c-2.43-.34-3.34-1.4-3.34-3.85q0-47.64,0-95.29c0-2.78,1-4,3.71-3.59q8.2,1.25,16.28,3.21c1.37.33,2.66,1.66,3.65,2.82,1.44,1.7,2.57,3.65,4,5.75L53.22,81.6c-.06,1.27-.13,2-.13,2.7q-.15,36.49-.29,73c0,2.69,0,2.74,2.76,2.84,22.83.85,44.79,5.59,65.52,15.26,6.87,3.2,13.26,7.4,19.87,11.14.44.25.89.48,1.71.93V116.62c3.83,1.56,5.56,3.95,5.56,7.58q0,30.15,0,60.28v2.78c1.9-1.23,3.49-2.23,5.06-3.26a131.64,131.64,0,0,1,32.25-15c1.38-.45,2-1.07,1.79-2.52a9.92,9.92,0,0,1,0-3c.82-4.51-1.31-7.6-4.46-10.51-4.61-4.28-9-8.83-13.46-13.23a8.57,8.57,0,0,1-2.84-6.89c.18-4,0-8,.06-11.93a2.7,2.7,0,0,0-1.59-2.83c-4.51-2.4-5.08-6.2-4.11-9.89,1-3.87,5-6.19,9.12-5.7,2.77.33,5.7,3,6.49,6,.88,3.29-.14,6.84-3,8.52-2,1.15-2.29,2.52-2.23,4.49.11,3.84,0,7.69.07,11.54a3.59,3.59,0,0,0,.79,2.31c4.65,4.72,9.39,9.36,14.11,14a7.79,7.79,0,0,0,1,.63c.05-.92.13-1.59.13-2.26,0-12.54,0-25.07,0-37.6a2.24,2.24,0,0,0-1.45-2.43,8,8,0,0,1-4.2-9.66c1.42-4.14,5.33-6.63,9.22-5.87a8.54,8.54,0,0,1,6.66,8.7,7.78,7.78,0,0,1-4.23,6.54,2.37,2.37,0,0,0-1.39,2.47q0,26.26,0,52.52V167c3-.79,5.86-1.46,8.65-2.35.41-.13.7-1.29.7-2,.05-12.73,0-25.47,0-38.2,0-.93,0-1.86,0-2.78a4.52,4.52,0,0,0-1.28-3.74,5,5,0,0,1,.61-7.12,5.26,5.26,0,0,1,7.15.48,5.08,5.08,0,0,1-.59,7c-.45.43-1.07,1-1.07,1.53-.08,5.68,0,11.35,0,17.67a50.5,50.5,0,0,1,3.72-3.57c4-3.13,5.6-7,5.2-12.2-.47-6.32-.09-12.72,0-19.08a3.13,3.13,0,0,0-1.74-3.16c-3.44-2-4.71-5.34-3.7-8.77s4.1-6.1,7.39-6.14a8.18,8.18,0,0,1,8.25,5.55,7.83,7.83,0,0,1-3.91,9.6,2.38,2.38,0,0,0-1.42,2.47c.05,8-.08,15.92.09,23.87a9.71,9.71,0,0,1-3.11,7.42c-3.12,3.16-6.27,6.29-9.35,9.49a4.08,4.08,0,0,0-1.33,2.32C206,151.22,206.09,157.17,206.09,163.5Zm-34.07-53a3,3,0,0,0-3.29-3,3.12,3.12,0,0,0-3.35,3.13,3.34,3.34,0,0,0,3.23,3.34A3.74,3.74,0,0,0,172,110.48Zm17.55-13.3a3.29,3.29,0,0,0-3.49,3.23,3.05,3.05,0,0,0,3.22,3.21,3.22,3.22,0,0,0,3.29-3.21A3.11,3.11,0,0,0,189.57,97.18Zm28-1.44a3.19,3.19,0,0,0,3.25-3.24,3.72,3.72,0,0,0-3.24-3.21,3.24,3.24,0,0,0-3.25,3.5A2.94,2.94,0,0,0,217.52,95.74Z"/><path class="cls-3" d="M151.62,79.78a8.26,8.26,0,0,1,1.18-1.34c4.65-3,4.49-9.92,1.44-13.78-2.48-3.15-4.52-6.45-5.19-10.53a20,20,0,0,1,1.12-10.7,30.35,30.35,0,0,0-.88-24.62c-1.09-2.36-.86-2.71,1.75-2.71h47.34c4.2,0,4.94.72,5,5,.07,5.44,0,10.88.17,16.31,0,1.06.53,2.72,1.23,3,1,.39,2.44-.22,3.67-.44a1.47,1.47,0,0,0,.64-.46c5.11-4.86,12.68-1.46,14.5,4.56,1.91,6.33-1.36,12.86-7.33,14.25-2.5.58-4.67-.24-6.74-1.57-1.4-.9-2.72-2.49-4.61-1.53s-1.59,3.15-1.6,5c0,5.24,0,10.48,0,15.72,0,3.72-1,4.57-4.62,4.57-4.77,0-9.55,0-14.32,0-1.75,0-3.33-.31-4.18-2s-.11-3.29,1.07-4.7c3.11-3.73,3.5-8.46,1.05-12.14s-8.27-5-12.68-2.9a8.93,8.93,0,0,0-4.69,11,17.42,17.42,0,0,0,2.77,4.71c1.72,2.27.72,5.79-2.05,5.95-4.09.25-8.21.07-12.32,0A6.8,6.8,0,0,1,151.62,79.78Z"/><text class="cls-4" transform="translate(0 274.43)">SINBAR</text></g></g></svg>